Coordinates
version=1
nRows=7
nColumns=46
inDegrees=yes

Units are S.I. units (second, meters, Newtons, ...)
Angles are in degrees.

endheader
time	pelvis_tilt	pelvis_list	pelvis_rotation	pelvis_tx	pelvis_ty	pelvis_tz	bb_angle	bb_tx	bb_ty	bb_tz	hip_flexion_r	hip_adduction_r	hip_rotation_r	knee_angle_r	knee_angle_r_beta	ankle_angle_r	subtalar_angle_r	mtp_angle_r	crank_angle_r	hip_flexion_l	hip_adduction_l	hip_rotation_l	knee_angle_l	knee_angle_l_beta	ankle_angle_l	subtalar_angle_l	mtp_angle_l	crank_angle_l	lumbar_extension	lumbar_bending	lumbar_rotation	arm_flex_r	arm_add_r	arm_rot_r	elbow_flex_r	pro_sup_r	wrist_flex_r	wrist_dev_r	arm_flex_l	arm_add_l	arm_rot_l	elbow_flex_l	pro_sup_l	wrist_flex_l	wrist_dev_l
      7.50000000	    -22.20114353	     -7.57883376	      5.14612725	      0.34299293	      1.22349931	     -0.25677062	      0.00000000	      0.50000000	      0.00000000	      0.25000000	     53.05512736	    -11.29436875	    -11.16651289	     83.29071148	      1.45369715	     -7.88506079	      4.53972685	      0.00000000	      0.00000000	     55.08883456	     -8.90224797	      0.69409127	     49.79780944	      0.86913574	      6.97675070	      5.89298198	      0.00000000	      0.00000000	    -61.30846051	     -1.15839608	      5.09853749	     67.18559005	    -30.41153428	     35.51488968	     57.47131622	     47.98885452	      0.00000000	      0.00000000	     72.02173218	     -8.44349565	     39.41499265	     59.34048032	     47.86877862	      0.00000000	      0.00000000
      7.50500000	    -22.12864482	     -8.23502888	      5.05680727	      0.34301986	      1.22121576	     -0.25737085	      0.00000000	      0.50000000	      0.00000000	      0.25000000	     54.28011854	    -11.31395628	    -11.40372292	     85.55024545	      1.49313346	     -6.92188593	      5.07668788	      0.00000000	      0.00000000	     53.73195134	     -9.31495508	      0.98783159	     47.70350287	      0.83258319	      5.95603445	      5.69069442	      0.00000000	      0.00000000	    -61.06516318	     -0.54810004	      5.57725286	     67.26946606	    -30.23753144	     35.68592099	     57.43491111	     48.00063098	      0.00000000	      0.00000000	     71.66162216	     -8.75295701	     39.40752302	     59.31592906	     47.87058681	      0.00000000	      0.00000000
      7.51000000	    -22.15295258	     -8.62862018	      4.76834064	      0.34292138	      1.21875112	     -0.25898518	      0.00000000	      0.50000000	      0.00000000	      0.25000000	     55.70442742	    -11.55821444	    -11.25001668	     87.79020869	      1.53222819	     -5.84752916	      6.28183506	      0.00000000	      0.00000000	     52.39126234	     -9.60490864	      1.03745380	     45.71132513	      0.79781313	      4.78785439	      4.97813897	      0.00000000	      0.00000000	    -60.77714891	     -0.09026043	      5.69847187	     67.56865863	    -29.82173137	     36.35110433	     57.30090312	     48.04578215	      0.00000000	      0.00000000	     71.14770066	     -9.31884127	     39.22816139	     59.63095206	     47.91034561	      0.00000000	      0.00000000
      7.51500000	    -22.08242749	     -9.38534255	      4.50444505	      0.34284942	      1.21630283	     -0.26001939	      0.00000000	      0.50000000	      0.00000000	      0.25000000	     56.97494261	    -11.42010748	    -11.48693043	     89.89332863	      1.56893456	     -5.03997704	      6.51004086	      0.00000000	      0.00000000	     51.13770543	    -10.30443066	      1.23880044	     43.92055241	      0.76655825	      3.88485519	      5.12088866	      0.00000000	      0.00000000	    -60.53064214	      0.60579719	      6.21564987	     67.78639544	    -29.49136649	     36.58950566	     57.31332226	     48.06396784	      0.00000000	      0.00000000	     70.61201956	     -9.49898461	     39.39993403	     59.71974326	     47.94656894	      0.00000000	      0.00000000
      7.52000000	    -21.95873074	     -9.71715986	      4.31797395	      0.34272320	      1.21388927	     -0.26124499	      0.00000000	      0.50000000	      0.00000000	      0.25000000	     58.29710457	    -11.72099658	    -11.32725291	     92.07175735	      1.60695531	     -3.96080968	      7.70399206	      0.00000000	      0.00000000	     49.70977124	    -10.58484143	      1.19859076	     42.14278523	      0.73553036	      2.69389186	      4.44519807	      0.00000000	      0.00000000	    -60.31733079	      1.16998851	      6.03585535	     68.50245424	    -28.82811151	     38.06215875	     56.60703865	     48.10279647	      0.00000000	      0.00000000	     69.89077855	    -11.07559719	     38.96578166	     60.79939391	     48.10040870	      0.00000000	      0.00000000
      7.52500000	    -21.84429902	    -10.53117452	      4.05272127	      0.34255117	      1.21148390	     -0.26198141	      0.00000000	      0.50000000	      0.00000000	      0.25000000	     59.56198130	    -11.51176782	    -11.61809738	     94.03671191	      1.64125024	     -3.35513747	      7.78548433	      0.00000000	      0.00000000	     48.49495135	    -11.39545661	      1.47236105	     40.57183003	      0.70811202	      2.01543797	      4.72167828	      0.00000000	      0.00000000	    -60.11750097	      1.89428318	      6.70863947	     68.65448843	    -28.61363848	     38.21459643	     56.57659772	     48.10583338	      0.00000000	      0.00000000	     69.51427697	    -11.45829779	     38.92555639	     60.79319797	     48.09852398	      0.00000000	      0.00000000
      7.53000000	    -21.73393328	    -10.95488832	      3.64567334	      0.34244021	      1.20920905	     -0.26302739	      0.00000000	      0.50000000	      0.00000000	      0.25000000	     60.93501829	    -11.46923140	    -11.38590835	     95.96986415	      1.67499011	     -2.43784935	      8.66165352	      0.00000000	      0.00000000	     47.13521807	    -11.95027026	      1.34599786	     39.01993902	      0.68102641	      0.95549161	      4.40910568	      0.00000000	      0.00000000	    -59.92945101	      2.37271166	      6.80553976	     69.14049411	    -28.00384193	     39.19749524	     56.10748314	     48.12627225	      0.00000000	      0.00000000	     68.93507597	    -12.41061612	     38.86692935	     61.24506697	     48.18201129	      0.00000000	      0.00000000
